# Blender v2.79 (sub 0) OBJ File: ''
# www.blender.org
mtllib CapitalShip.mtl
o Cube
v 1.000000 -1.362068 -8.001732
v 2.000000 -1.000000 7.996640
v -2.000000 -1.000000 7.996640
v -1.000000 -1.362068 -8.001732
v 1.000000 -0.473623 -8.001732
v 1.999999 1.000000 7.996641
v -2.000000 1.000000 7.996640
v -1.000000 -0.473623 -8.001732
v 1.659360 -1.303986 2.546962
v -1.659360 -1.303986 2.546962
v 1.659360 0.194280 2.546962
v -1.659361 0.194280 2.546962
v 1.000000 -1.134668 -8.001732
v 0.919001 -0.877698 -7.284969
v 1.000000 -0.690446 -8.913802
v 2.000000 -0.488095 7.996640
v 1.838001 -0.028117 7.417550
v 2.000000 0.511905 7.996640
v -2.000000 -0.488095 7.996640
v -1.838002 -0.028117 7.417550
v -2.000000 0.511905 7.996640
v -1.000000 -1.134668 -8.001732
v -0.919001 -0.877698 -7.284969
v -1.000000 -0.690446 -8.913802
v -1.659361 -0.171369 2.546962
v -1.524954 -0.540772 2.409290
v -1.659360 -0.920502 2.546962
v 1.659360 -0.171369 2.546962
v 1.524954 -0.540772 2.409290
v 1.659360 -0.920502 2.546962
v -0.022520 0.449141 6.242903
v -0.022520 0.755921 8.005184
v 0.063680 0.440651 6.242903
v 0.123510 0.741538 8.005184
v 0.146568 0.415507 6.242905
v 0.263929 0.698943 8.005187
v 0.222957 0.374676 6.242907
v 0.393339 0.629771 8.005190
v 0.289913 0.319727 6.242909
v 0.506769 0.536683 8.005196
v 0.344862 0.252771 6.242913
v 0.599858 0.423253 8.005201
v 0.385694 0.176381 6.242917
v 0.669029 0.293842 8.005207
v 0.410837 0.093494 6.242921
v 0.711625 0.153424 8.005215
v 0.419327 0.007293 6.242925
v 0.726007 0.007393 8.005221
v 0.410837 -0.078907 6.242929
v 0.711625 -0.138637 8.005229
v 0.385694 -0.161794 6.242934
v 0.669029 -0.279056 8.005236
v 0.344862 -0.238184 6.242938
v 0.599858 -0.408466 8.005242
v 0.289913 -0.305140 6.242941
v 0.506769 -0.521896 8.005248
v 0.222957 -0.360089 6.242944
v 0.393339 -0.614984 8.005252
v 0.146567 -0.400921 6.242946
v 0.263929 -0.684156 8.005256
v 0.063680 -0.426064 6.242947
v 0.123510 -0.726752 8.005258
v -0.022520 -0.434554 6.242947
v -0.022520 -0.741134 8.005259
v -0.108720 -0.426064 6.242947
v -0.168551 -0.726751 8.005258
v -0.191608 -0.400920 6.242946
v -0.308969 -0.684156 8.005256
v -0.267998 -0.360089 6.242944
v -0.438380 -0.614984 8.005252
v -0.334954 -0.305139 6.242941
v -0.551809 -0.521895 8.005248
v -0.389903 -0.238183 6.242938
v -0.644898 -0.408466 8.005242
v -0.430734 -0.161794 6.242934
v -0.714070 -0.279055 8.005236
v -0.455878 -0.078906 6.242929
v -0.756665 -0.138636 8.005229
v -0.464368 0.007294 6.242925
v -0.771048 0.007394 8.005221
v -0.455877 0.093494 6.242921
v -0.756665 0.153425 8.005215
v -0.430734 0.176381 6.242917
v -0.714069 0.293843 8.005207
v -0.389902 0.252771 6.242913
v -0.644897 0.423254 8.005201
v -0.334953 0.319727 6.242909
v -0.551808 0.536683 8.005196
v -0.267997 0.374677 6.242907
v -0.438379 0.629772 8.005190
v -0.191607 0.415507 6.242905
v -0.308968 0.698943 8.005187
v -0.108720 0.440651 6.242903
v -0.168550 0.741539 8.005184
v -0.022520 1.054892 8.242872
v 0.181837 1.034765 8.242874
v 0.378340 0.975156 8.242877
v 0.559439 0.878357 8.242882
v 0.718173 0.748087 8.242888
v 0.848443 0.589352 8.242897
v 0.945242 0.408254 8.242906
v 1.004851 0.211750 8.242916
v 1.024978 0.007393 8.242926
v 1.004851 -0.196963 8.242935
v 0.945242 -0.393467 8.242946
v 0.848443 -0.574566 8.242954
v 0.718173 -0.733300 8.242963
v 0.559439 -0.863569 8.242969
v 0.378340 -0.960370 8.242973
v 0.181836 -1.019978 8.242976
v -0.022520 -1.040106 8.242977
v -0.226878 -1.019977 8.242976
v -0.423381 -0.960369 8.242973
v -0.604480 -0.863569 8.242969
v -0.763214 -0.733299 8.242963
v -0.893484 -0.574565 8.242954
v -0.990283 -0.393466 8.242946
v -1.049891 -0.196962 8.242935
v -1.070019 0.007394 8.242926
v -1.049891 0.211751 8.242916
v -0.990282 0.408255 8.242906
v -0.893483 0.589353 8.242897
v -0.763213 0.748088 8.242888
v -0.604478 0.878358 8.242882
v -0.423379 0.975156 8.242877
v -0.226876 1.034765 8.242874
v 0.714286 -1.362068 -8.001732
v 0.428571 -1.362068 -8.001732
v 0.142857 -1.362068 -8.001732
v -0.142857 -1.362068 -8.001732
v -0.428571 -1.362068 -8.001732
v -0.714285 -1.362068 -8.001732
v 1.428571 -1.000000 7.996640
v 0.857143 -1.000000 7.996640
v 0.285714 -1.000000 7.996640
v -0.285714 -1.000000 7.996640
v -0.857143 -1.000000 7.996640
v -1.428571 -1.000000 7.996640
v 0.714286 -0.225802 -6.357656
v 0.428572 -0.225802 -6.357656
v 0.142857 -0.537444 -6.357656
v -0.142857 -0.537444 -6.357656
v -0.428571 -0.225802 -6.357656
v -0.714286 -0.225802 -6.357656
v 1.428571 1.247821 7.996641
v 0.857142 1.247821 7.996641
v 0.285714 1.000000 7.996641
v -0.285715 1.000000 7.996640
v -0.857143 1.247821 7.996640
v -1.428572 1.247821 7.996640
v -1.185258 0.442100 2.546962
v -0.711155 0.442100 2.546962
v -0.237052 0.130459 2.546962
v 0.237051 0.130459 2.546962
v 0.711154 0.442100 2.546962
v 1.185257 0.442100 2.546962
v 1.185257 -1.303986 2.546962
v 0.711154 -1.303986 2.546962
v 0.237051 -1.303986 2.546962
v -0.237051 -1.303986 2.546962
v -0.711154 -1.303986 2.546962
v -1.185257 -1.303986 2.546962
v 0.714286 -0.690446 -7.334318
v 0.428572 -0.690446 -7.334318
v 0.142857 -0.690446 -7.334318
v -0.142857 -0.690446 -7.334318
v -0.428571 -0.690446 -7.334318
v -0.714286 -0.690446 -7.334318
v 0.656429 -0.877698 -7.349561
v 0.393858 -0.877698 -7.349561
v 0.131286 -0.877698 -7.349561
v -0.131286 -0.877698 -7.349561
v -0.393857 -0.877698 -7.349561
v -0.656429 -0.877698 -7.349561
v 0.714286 -1.134668 -8.001732
v 0.428572 -1.134668 -8.001732
v 0.142857 -1.134668 -8.001732
v -0.142857 -1.134668 -8.001732
v -0.428571 -1.134668 -8.001732
v -0.714285 -1.134668 -8.001732
v 1.428571 -0.488095 7.996640
v 0.857143 -0.488095 7.996640
v 0.285714 -0.488095 7.996640
v -0.285714 -0.488095 7.996640
v -0.857143 -0.488095 7.996640
v -1.428571 -0.488095 7.996640
v 1.312858 -0.028117 7.417550
v 0.787715 -0.028117 7.417550
v 0.262571 -0.028117 7.417550
v -0.262572 -0.028117 7.417550
v -0.787715 -0.028117 7.417550
v -1.312859 -0.028117 7.417550
v 1.428571 0.511905 7.996640
v 0.857142 0.511905 7.996640
v 0.285714 0.511905 7.996640
v -0.285715 0.511905 7.996640
v -0.857143 0.511905 7.996640
v -1.428572 0.511905 7.996640
v 0.934404 -0.842089 -7.594715
v 0.950604 -0.804639 -7.920481
v 0.966804 -0.767188 -8.246247
v 0.983004 -0.729738 -8.572014
v 1.868808 0.074576 7.527672
v 1.901207 0.182580 7.643490
v 1.933607 0.290584 7.759308
v 1.966006 0.398589 7.875126
v -1.868808 0.074576 7.527672
v -1.901208 0.182580 7.643490
v -1.933608 0.290584 7.759308
v -1.966007 0.398589 7.875126
v -0.934404 -0.842089 -7.594715
v -0.950604 -0.804639 -7.920481
v -0.966803 -0.767188 -8.246247
v -0.983003 -0.729738 -8.572014
v -1.631157 -0.248883 2.518073
v -1.604276 -0.322764 2.490539
v -1.577395 -0.396644 2.463004
v -1.550513 -0.470525 2.435470
v 1.631157 -0.248883 2.518074
v 1.604275 -0.322764 2.490539
v 1.577394 -0.396644 2.463005
v 1.550513 -0.470525 2.435471
v 1.404290 0.398589 7.875126
v 1.381148 0.290584 7.759308
v 1.358005 0.182580 7.643490
v 1.334862 0.074576 7.527672
v 0.842574 0.398589 7.875126
v 0.828688 0.290584 7.759308
v 0.814803 0.182580 7.643490
v 0.800917 0.074576 7.527672
v 0.280858 0.398589 7.875126
v 0.276229 0.290584 7.759308
v 0.271601 0.182580 7.643490
v 0.266972 0.074576 7.527672
v -0.280859 0.398589 7.875126
v -0.276230 0.290584 7.759308
v -0.271601 0.182580 7.643490
v -0.266973 0.074576 7.527672
v -0.842575 0.398589 7.875126
v -0.828689 0.290584 7.759308
v -0.814804 0.182580 7.643490
v -0.800918 0.074576 7.527672
v -1.404291 0.398589 7.875126
v -1.381149 0.290584 7.759308
v -1.358006 0.182580 7.643490
v -1.334863 0.074576 7.527672
v 0.667432 -0.842089 -7.346662
v 0.679003 -0.804639 6.685558
v 0.690574 -0.767188 6.688607
v 0.702146 -0.729738 -7.337516
v 0.400459 -0.842089 -7.346662
v 0.407402 -0.804639 6.685558
v 0.414345 -0.767188 6.688607
v 0.421287 -0.729738 -7.337516
v 0.133487 -0.842089 -7.346662
v 0.135801 -0.804639 6.685558
v 0.138115 -0.767188 6.688607
v 0.140429 -0.729738 -7.337516
v -0.133486 -0.842089 -7.346662
v -0.135800 -0.804639 6.685558
v -0.138115 -0.767188 6.688607
v -0.140429 -0.729738 -7.337516
v -0.400459 -0.842089 -7.346662
v -0.407401 -0.804639 6.685558
v -0.414344 -0.767188 6.688607
v -0.421287 -0.729738 -7.337516
v -0.667431 -0.842089 -7.346662
v -0.679003 -0.804639 6.685558
v -0.690574 -0.767188 6.688607
v -0.702145 -0.729738 -7.337516
vn 0.0000 -0.9984 0.0557
vn -0.4232 0.8927 -0.1547
vn 0.9981 0.0000 -0.0624
vn 0.0000 0.0000 1.0000
vn -0.9927 0.1017 -0.0650
vn 0.0000 0.0000 -1.0000
vn -0.9981 -0.0000 -0.0624
vn 0.9927 0.1017 -0.0650
vn -0.4069 0.9094 -0.0861
vn 0.0000 -1.0000 0.0055
vn 0.9247 0.3747 -0.0680
vn 0.8994 -0.4359 -0.0328
vn -0.9600 0.2670 -0.0841
vn -0.9559 -0.2929 -0.0237
vn 0.8332 0.5202 -0.1877
vn 0.0803 -0.9694 -0.2319
vn -0.0409 0.9368 -0.3475
vn -0.9247 0.3747 -0.0680
vn -0.8994 -0.4359 -0.0328
vn 0.0000 0.7830 0.6220
vn 0.0000 -0.7313 0.6820
vn 0.9600 0.2670 -0.0841
vn 0.9559 -0.2929 -0.0237
vn -0.0612 -0.6212 0.7813
vn -0.1812 -0.5973 0.7813
vn -0.2942 -0.5505 0.7813
vn -0.3960 -0.4825 0.7813
vn -0.4825 -0.3959 0.7813
vn -0.5505 -0.2942 0.7813
vn -0.5973 -0.1811 0.7813
vn -0.6212 -0.0611 0.7813
vn -0.6212 0.0612 0.7813
vn -0.5973 0.1812 0.7813
vn -0.5505 0.2943 0.7813
vn -0.4825 0.3960 0.7813
vn -0.3960 0.4825 0.7813
vn -0.2942 0.5505 0.7813
vn -0.1812 0.5973 0.7813
vn -0.0612 0.6212 0.7813
vn 0.0612 0.6212 0.7813
vn 0.1812 0.5973 0.7813
vn 0.2942 0.5505 0.7813
vn 0.3960 0.4825 0.7813
vn 0.4825 0.3960 0.7813
vn 0.5505 0.2943 0.7813
vn 0.5973 0.1812 0.7813
vn 0.6212 0.0612 0.7813
vn 0.6212 -0.0611 0.7813
vn 0.5973 -0.1812 0.7813
vn 0.5505 -0.2942 0.7813
vn 0.4825 -0.3959 0.7813
vn 0.3960 -0.4825 0.7813
vn 0.2942 -0.5505 0.7813
vn 0.1812 -0.5973 0.7813
vn 0.0612 -0.6212 0.7813
vn 0.0000 -0.0001 -1.0000
vn -0.0938 0.9528 -0.2886
vn -0.2779 0.9162 -0.2886
vn -0.4513 0.8444 -0.2886
vn -0.6074 0.7401 -0.2886
vn -0.7401 0.6074 -0.2886
vn -0.8444 0.4513 -0.2886
vn -0.9162 0.2779 -0.2886
vn -0.9529 0.0938 -0.2886
vn -0.9529 -0.0939 -0.2885
vn -0.9162 -0.2780 -0.2885
vn -0.8444 -0.4514 -0.2885
vn -0.7401 -0.6074 -0.2885
vn -0.6074 -0.7401 -0.2885
vn -0.4513 -0.8444 -0.2885
vn -0.2779 -0.9163 -0.2885
vn -0.0939 -0.9529 -0.2885
vn 0.0938 -0.9529 -0.2885
vn 0.2779 -0.9163 -0.2885
vn 0.4514 -0.8444 -0.2885
vn 0.6074 -0.7401 -0.2885
vn 0.7401 -0.6074 -0.2885
vn 0.8444 -0.4514 -0.2885
vn 0.9162 -0.2780 -0.2885
vn 0.9529 -0.0939 -0.2885
vn 0.9529 0.0938 -0.2886
vn 0.9162 0.2779 -0.2886
vn 0.8444 0.4513 -0.2886
vn 0.7401 0.6074 -0.2886
vn 0.6074 0.7401 -0.2886
vn 0.4513 0.8444 -0.2886
vn 0.2779 0.9162 -0.2886
vn 0.0938 0.9528 -0.2886
vn 0.0409 0.9368 -0.3475
vn 0.0000 0.9304 -0.3666
vn -0.0803 -0.9694 -0.2319
vn 0.0000 0.0811 -0.9967
vn -0.8332 0.5202 -0.1877
vn 0.0000 0.9030 -0.4296
vn -0.4614 0.8459 -0.2675
vn 0.0000 0.9880 -0.1548
vn 0.4614 0.8459 -0.2675
vn 0.4069 0.9094 -0.0861
vn 0.0000 0.9972 -0.0748
vn -0.6336 0.7724 -0.0445
vn 0.6336 0.7724 -0.0445
vn 0.4232 0.8927 -0.1547
vn 0.0000 0.9892 -0.1463
vn -0.4680 0.8747 -0.1261
vn 0.0000 0.9875 -0.1576
vn 0.4680 0.8747 -0.1261
vn 0.0000 -1.0000 -0.0027
vn 0.0000 1.0000 -0.0027
vn -0.8814 -0.4378 -0.1775
vn -0.1585 -0.9874 -0.0055
vn -0.9601 0.2793 -0.0178
vn -0.1413 0.9900 -0.0051
vn 0.9570 -0.2886 -0.0296
vn 0.9567 -0.2897 -0.0281
vn 0.9564 -0.2908 -0.0266
vn 0.9561 -0.2918 -0.0251
vn -0.8922 -0.4500 -0.0391
vn -0.8942 -0.4462 -0.0374
vn -0.8960 -0.4426 -0.0358
vn -0.8977 -0.4392 -0.0343
vn 0.8814 -0.4378 -0.1775
vn 0.1585 -0.9874 -0.0055
vn 0.9601 0.2792 -0.0178
vn 0.1413 0.9900 -0.0051
vn -0.9570 -0.2886 -0.0296
vn -0.9567 -0.2897 -0.0281
vn -0.9564 -0.2908 -0.0266
vn -0.9561 -0.2918 -0.0251
vn 0.8922 -0.4500 -0.0391
vn 0.8942 -0.4462 -0.0374
vn 0.8960 -0.4426 -0.0358
vn 0.8977 -0.4392 -0.0343
usemtl Material
s off
f 162//1 138//1 3//1 10//1
f 151//2 12//2 7//2 150//2
f 28//3 11//3 6//3 18//3
f 198//4 150//4 7//4 21//4
f 25//5 12//5 8//5 24//5
f 180//6 132//6 4//6 22//6
f 21//7 7//7 12//7 25//7
f 15//8 5//8 11//8 28//8
f 144//9 8//9 12//9 151//9
f 132//10 162//10 10//10 4//10
f 1//3 13//3 30//3 9//3
f 13//11 14//11 29//11 30//11
f 202//12 15//12 28//12 219//12
f 3//7 19//7 27//7 10//7
f 19//13 20//13 26//13 27//13
f 210//14 21//14 25//14 215//14
f 144//15 168//15 24//15 8//15
f 267//16 174//16 23//16 211//16
f 174//17 180//17 22//17 23//17
f 10//7 27//7 22//7 4//7
f 27//18 26//18 23//18 22//18
f 215//19 25//19 24//19 214//19
f 138//4 186//4 19//4 3//4
f 186//20 192//20 20//20 19//20
f 243//21 198//21 21//21 210//21
f 9//3 30//3 16//3 2//3
f 30//22 29//22 17//22 16//22
f 219//23 28//23 18//23 206//23
f 95//24 32//24 34//24 96//24
f 96//25 34//25 36//25 97//25
f 97//26 36//26 38//26 98//26
f 98//27 38//27 40//27 99//27
f 99//28 40//28 42//28 100//28
f 100//29 42//29 44//29 101//29
f 101//30 44//30 46//30 102//30
f 102//31 46//31 48//31 103//31
f 103//32 48//32 50//32 104//32
f 104//33 50//33 52//33 105//33
f 105//34 52//34 54//34 106//34
f 106//35 54//35 56//35 107//35
f 107//36 56//36 58//36 108//36
f 108//37 58//37 60//37 109//37
f 109//38 60//38 62//38 110//38
f 110//39 62//39 64//39 111//39
f 111//40 64//40 66//40 112//40
f 112//41 66//41 68//41 113//41
f 113//42 68//42 70//42 114//42
f 114//43 70//43 72//43 115//43
f 115//44 72//44 74//44 116//44
f 116//45 74//45 76//45 117//45
f 117//46 76//46 78//46 118//46
f 118//47 78//47 80//47 119//47
f 119//48 80//48 82//48 120//48
f 120//49 82//49 84//49 121//49
f 121//50 84//50 86//50 122//50
f 122//51 86//51 88//51 123//51
f 123//52 88//52 90//52 124//52
f 124//53 90//53 92//53 125//53
f 34//4 32//4 94//4 92//4 90//4 88//4 86//4 84//4 82//4 80//4 78//4 76//4 74//4 72//4 70//4 68//4 66//4 64//4 62//4 60//4 58//4 56//4 54//4 52//4 50//4 48//4 46//4 44//4 42//4 40//4 38//4 36//4
f 125//54 92//54 94//54 126//54
f 126//55 94//55 32//55 95//55
f 31//56 33//56 35//56 37//56 39//56 41//56 43//56 45//56 47//56 49//56 51//56 53//56 55//56 57//56 59//56 61//56 63//56 65//56 67//56 69//56 71//56 73//56 75//56 77//56 79//56 81//56 83//56 85//56 87//56 89//56 91//56 93//56
f 93//57 126//57 95//57 31//57
f 91//58 125//58 126//58 93//58
f 89//59 124//59 125//59 91//59
f 87//60 123//60 124//60 89//60
f 85//61 122//61 123//61 87//61
f 83//62 121//62 122//62 85//62
f 81//63 120//63 121//63 83//63
f 79//64 119//64 120//64 81//64
f 77//65 118//65 119//65 79//65
f 75//66 117//66 118//66 77//66
f 73//67 116//67 117//67 75//67
f 71//68 115//68 116//68 73//68
f 69//69 114//69 115//69 71//69
f 67//70 113//70 114//70 69//70
f 65//71 112//71 113//71 67//71
f 63//72 111//72 112//72 65//72
f 61//73 110//73 111//73 63//73
f 59//74 109//74 110//74 61//74
f 57//75 108//75 109//75 59//75
f 55//76 107//76 108//76 57//76
f 53//77 106//77 107//77 55//77
f 51//78 105//78 106//78 53//78
f 49//79 104//79 105//79 51//79
f 47//80 103//80 104//80 49//80
f 45//81 102//81 103//81 47//81
f 43//82 101//82 102//82 45//82
f 41//83 100//83 101//83 43//83
f 39//84 99//84 100//84 41//84
f 37//85 98//85 99//85 39//85
f 35//86 97//86 98//86 37//86
f 33//87 96//87 97//87 35//87
f 31//88 95//88 96//88 33//88
f 206//21 18//21 193//21 223//21
f 223//21 193//21 194//21 227//21
f 227//21 194//21 195//21 231//21
f 231//21 195//21 196//21 235//21
f 235//21 196//21 197//21 239//21
f 239//21 197//21 198//21 243//21
f 16//20 17//20 187//20 181//20
f 181//20 187//20 188//20 182//20
f 182//20 188//20 189//20 183//20
f 183//20 189//20 190//20 184//20
f 184//20 190//20 191//20 185//20
f 185//20 191//20 192//20 186//20
f 2//4 16//4 181//4 133//4
f 133//4 181//4 182//4 134//4
f 134//4 182//4 183//4 135//4
f 135//4 183//4 184//4 136//4
f 136//4 184//4 185//4 137//4
f 137//4 185//4 186//4 138//4
f 14//89 13//89 175//89 169//89
f 169//90 175//90 176//90 170//90
f 170//90 176//90 177//90 171//90
f 171//90 177//90 178//90 172//90
f 172//90 178//90 179//90 173//90
f 173//90 179//90 180//90 174//90
f 199//91 14//91 169//91 247//91
f 247//92 169//92 170//92 251//92
f 251//92 170//92 171//92 255//92
f 255//92 171//92 172//92 259//92
f 259//92 172//92 173//92 263//92
f 263//92 173//92 174//92 267//92
f 5//93 15//93 163//93 139//93
f 139//94 163//94 164//94 140//94
f 140//95 164//95 165//95 141//95
f 141//96 165//96 166//96 142//96
f 142//97 166//97 167//97 143//97
f 143//94 167//94 168//94 144//94
f 1//10 9//10 157//10 127//10
f 127//10 157//10 158//10 128//10
f 128//10 158//10 159//10 129//10
f 129//10 159//10 160//10 130//10
f 130//10 160//10 161//10 131//10
f 131//10 161//10 162//10 132//10
f 5//98 139//98 156//98 11//98
f 139//99 140//99 155//99 156//99
f 140//100 141//100 154//100 155//100
f 141//99 142//99 153//99 154//99
f 142//101 143//101 152//101 153//101
f 143//99 144//99 151//99 152//99
f 13//6 1//6 127//6 175//6
f 175//6 127//6 128//6 176//6
f 176//6 128//6 129//6 177//6
f 177//6 129//6 130//6 178//6
f 178//6 130//6 131//6 179//6
f 179//6 131//6 132//6 180//6
f 18//4 6//4 145//4 193//4
f 193//4 145//4 146//4 194//4
f 194//4 146//4 147//4 195//4
f 195//4 147//4 148//4 196//4
f 196//4 148//4 149//4 197//4
f 197//4 149//4 150//4 198//4
f 11//102 156//102 145//102 6//102
f 156//103 155//103 146//103 145//103
f 155//104 154//104 147//104 146//104
f 154//105 153//105 148//105 147//105
f 153//106 152//106 149//106 148//106
f 152//103 151//103 150//103 149//103
f 9//1 2//1 133//1 157//1
f 157//1 133//1 134//1 158//1
f 158//1 134//1 135//1 159//1
f 159//1 135//1 136//1 160//1
f 160//1 136//1 137//1 161//1
f 161//1 137//1 138//1 162//1
f 167//92 266//92 270//92 168//92
f 266//107 265//107 269//107 270//107
f 265//92 264//92 268//92 269//92
f 264//108 263//108 267//108 268//108
f 166//92 262//92 266//92 167//92
f 262//107 261//107 265//107 266//107
f 261//92 260//92 264//92 265//92
f 260//108 259//108 263//108 264//108
f 165//92 258//92 262//92 166//92
f 258//107 257//107 261//107 262//107
f 257//92 256//92 260//92 261//92
f 256//108 255//108 259//108 260//108
f 164//92 254//92 258//92 165//92
f 254//107 253//107 257//107 258//107
f 253//92 252//92 256//92 257//92
f 252//108 251//108 255//108 256//108
f 163//92 250//92 254//92 164//92
f 250//107 249//107 253//107 254//107
f 249//92 248//92 252//92 253//92
f 248//108 247//108 251//108 252//108
f 15//109 202//109 250//109 163//109
f 202//110 201//110 249//110 250//110
f 201//111 200//111 248//111 249//111
f 200//112 199//112 247//112 248//112
f 191//21 242//21 246//21 192//21
f 242//21 241//21 245//21 246//21
f 241//21 240//21 244//21 245//21
f 240//21 239//21 243//21 244//21
f 190//21 238//21 242//21 191//21
f 238//21 237//21 241//21 242//21
f 237//21 236//21 240//21 241//21
f 236//21 235//21 239//21 240//21
f 189//21 234//21 238//21 190//21
f 234//21 233//21 237//21 238//21
f 233//21 232//21 236//21 237//21
f 232//21 231//21 235//21 236//21
f 188//21 230//21 234//21 189//21
f 230//21 229//21 233//21 234//21
f 229//21 228//21 232//21 233//21
f 228//21 227//21 231//21 232//21
f 187//21 226//21 230//21 188//21
f 226//21 225//21 229//21 230//21
f 225//21 224//21 228//21 229//21
f 224//21 223//21 227//21 228//21
f 17//21 203//21 226//21 187//21
f 203//21 204//21 225//21 226//21
f 204//21 205//21 224//21 225//21
f 205//21 206//21 223//21 224//21
f 29//113 222//113 203//113 17//113
f 222//114 221//114 204//114 203//114
f 221//115 220//115 205//115 204//115
f 220//116 219//116 206//116 205//116
f 192//21 246//21 207//21 20//21
f 246//21 245//21 208//21 207//21
f 245//21 244//21 209//21 208//21
f 244//21 243//21 210//21 209//21
f 26//117 218//117 211//117 23//117
f 218//118 217//118 212//118 211//118
f 217//119 216//119 213//119 212//119
f 216//120 215//120 214//120 213//120
f 168//121 270//121 214//121 24//121
f 270//122 269//122 213//122 214//122
f 269//123 268//123 212//123 213//123
f 268//124 267//124 211//124 212//124
f 20//125 207//125 218//125 26//125
f 207//126 208//126 217//126 218//126
f 208//127 209//127 216//127 217//127
f 209//128 210//128 215//128 216//128
f 14//129 199//129 222//129 29//129
f 199//130 200//130 221//130 222//130
f 200//131 201//131 220//131 221//131
f 201//132 202//132 219//132 220//132
