# Blender v2.79 (sub 0) OBJ File: 'FlakCannon.blend'
# www.blender.org
mtllib FlakCannon.mtl
o FlakCannonBarrel_Cube.002
v -0.055344 1.940950 0.200001
v -0.055344 2.325576 0.200001
v -0.055344 1.940950 -0.184626
v -0.055344 2.325576 -0.184626
v 0.329282 1.940950 0.200001
v 0.329282 1.940950 -0.184626
v -0.055344 1.940950 -0.184626
v -0.055344 1.940950 0.200001
v -0.055344 2.325576 0.200001
v -0.055344 2.325576 -0.184626
v 0.397898 1.940950 -0.184626
v 0.397898 2.113881 -0.184626
v 0.397898 1.940950 0.200001
v 0.397898 2.113881 0.200001
v -1.768193 2.046872 -0.078703
v -1.768193 2.046872 0.094079
v -1.768193 2.219654 0.094079
v -1.768193 2.219654 -0.078703
v -0.807446 2.020747 -0.104828
v -1.290097 2.068645 -0.056931
v -1.436870 2.046872 -0.078703
v -1.436870 2.219654 -0.078703
v -1.290097 2.197882 -0.056931
v -0.807446 2.245779 -0.104828
v -0.807446 2.245779 0.120203
v -1.290097 2.197882 0.072306
v -1.436870 2.219654 0.094079
v -1.436870 2.046872 0.094079
v -1.290097 2.068645 0.072306
v -0.807446 2.020747 0.120203
v 0.173872 1.940950 -0.184626
v 0.173872 2.325576 -0.184626
v 0.173872 1.940950 0.200001
v 0.173872 2.325576 0.200001
v -0.055344 2.037107 0.285614
v -0.055344 2.133263 0.285614
v -0.055344 2.229420 0.285614
v -0.055344 2.229420 -0.284626
v -0.055344 2.133263 -0.284626
v -0.055344 2.037107 -0.284626
v 0.397898 2.070648 -0.284626
v 0.397898 2.027416 -0.284626
v 0.397898 1.984183 -0.284626
v 0.397898 2.070648 0.285614
v 0.397898 2.027416 0.285614
v 0.397898 1.984183 0.200001
v -1.768193 2.090068 0.179692
v -1.768193 2.133263 0.179692
v -1.768193 2.176459 0.179692
v -1.768193 2.176459 -0.178703
v -1.768193 2.133263 -0.178703
v -1.768193 2.090068 -0.178703
v -0.807446 2.189521 0.205817
v -0.807446 2.133263 0.205817
v -0.807446 2.077005 0.205817
v -1.290097 2.165572 0.157920
v -1.290097 2.133263 0.157920
v -1.290097 2.100954 0.157920
v -1.436870 2.176459 0.179692
v -1.436870 2.133263 0.179692
v -1.436870 2.090068 0.179692
v -0.807446 2.077005 -0.204828
v -0.807446 2.133263 -0.204828
v -0.807446 2.189521 -0.204828
v -1.290097 2.100954 -0.156931
v -1.290097 2.133263 -0.156931
v -1.290097 2.165572 -0.156931
v -1.436870 2.090068 -0.178703
v -1.436870 2.133263 -0.178703
v -1.436870 2.176459 -0.178703
v 0.173872 2.229420 0.285614
v 0.173872 2.133263 0.285614
v 0.173872 2.037107 0.285614
v 0.173872 2.229420 -0.284626
v 0.173872 2.133263 -0.284626
v 0.173872 2.037107 -0.284626
v -0.055344 2.133263 0.200001
v -0.055344 2.133263 -0.184626
v 0.397898 2.027416 -0.184626
v -1.768193 2.133263 0.094079
v -1.768193 2.133263 -0.078703
v -0.807446 2.133263 0.120203
v -1.290097 2.133263 0.072306
v -1.436870 2.133263 0.094079
v -0.807446 2.133263 -0.104828
v -1.290097 2.133263 -0.056931
v -1.436870 2.133263 -0.078703
v 0.173872 2.133263 0.200001
v 0.173872 2.133263 -0.184626
v -0.055344 1.940950 -0.056417
v -0.055344 1.940950 0.071792
v -0.055344 2.325576 0.071792
v -0.055344 2.325576 -0.056417
v 0.397898 1.940950 0.071792
v 0.397898 1.940950 -0.056417
v 0.397898 2.113881 -0.056417
v 0.397898 2.113881 0.071792
v -1.768193 2.046872 -0.021109
v -1.768193 2.046872 0.036485
v -1.768193 2.219654 0.036485
v -1.768193 2.219654 -0.021109
v -0.807446 2.020747 0.045193
v -0.807446 2.020747 -0.029818
v -1.290097 2.068645 0.029227
v -1.290097 2.068645 -0.013852
v -1.436870 2.046872 0.036485
v -1.436870 2.046872 -0.021109
v -0.807446 2.245779 -0.029818
v -0.807446 2.245779 0.045193
v -1.290097 2.197882 -0.013852
v -1.290097 2.197882 0.029227
v -1.436870 2.219654 -0.021109
v -1.436870 2.219654 0.036485
v 0.173872 2.325576 -0.056417
v 0.173872 2.325576 0.071792
v 0.173872 1.940950 -0.056417
v 0.173872 1.940950 0.071792
v -1.768193 2.090068 0.060227
v -1.768193 2.090068 -0.059238
v -1.768193 2.176459 0.060227
v -1.768193 2.176459 -0.059238
v 0.397898 1.984183 -0.123084
v 0.397898 1.984183 0.038459
v 0.397898 2.027416 -0.094546
v 0.397898 2.027416 0.095534
v 0.397898 2.070648 -0.094546
v 0.397898 2.070648 0.095534
v -1.768193 2.111665 0.179692
v -1.768193 2.111665 -0.178703
v -1.768193 2.090068 -0.118971
v -1.768193 2.133263 0.000494
v -1.768193 2.090068 0.119959
v -1.768193 2.090068 0.000494
v -1.857754 2.111665 0.179692
v -1.857754 2.133263 0.179692
v -1.857754 2.176459 0.179692
v -1.857754 2.176459 -0.178703
v -1.857754 2.133263 -0.178703
v -1.857754 2.111665 -0.178703
v -1.857754 2.090068 -0.178703
v -1.857754 2.090068 -0.118971
v -1.857754 2.133263 0.000494
v -1.857754 2.176459 -0.059238
v -1.857754 2.090068 0.119959
v -1.857754 2.090068 0.060227
v -1.857754 2.090068 0.000494
v -1.857754 2.090068 -0.059238
v -1.857754 2.176459 0.060227
v -1.857754 2.090068 0.179692
vn 1.0000 0.0000 0.0000
vn 0.0000 1.0000 0.0000
vn 0.0000 -0.9180 -0.3965
vn 0.5614 0.6789 -0.4732
vn 0.0000 0.6650 0.7469
vn 0.0000 -1.0000 0.0000
vn -1.0000 0.0000 0.0000
vn 0.0000 0.8928 0.4505
vn -0.1055 -0.9944 0.0000
vn -0.0988 -0.9951 0.0000
vn 0.1467 -0.9892 0.0000
vn -0.1055 0.9944 0.0000
vn -0.0988 0.9951 0.0000
vn 0.1467 0.9892 0.0000
vn -0.1289 0.7407 0.6593
vn -0.1110 0.8827 0.4566
vn 0.1596 0.9033 0.3983
vn -0.1266 -0.7890 -0.6013
vn -0.1076 -0.9090 -0.4026
vn 0.1546 -0.9243 -0.3489
vn 0.6868 0.7268 0.0000
vn 0.5398 0.6528 0.5314
vn 0.0000 0.7208 -0.6931
vn 0.0000 -0.7208 -0.6931
vn 0.0000 0.0000 -1.0000
vn 0.1005 -0.5207 0.8478
vn -0.0226 -0.5232 0.8519
vn 0.0000 0.0000 1.0000
vn 0.1546 0.9243 -0.3489
vn 0.1467 0.0000 -0.9892
vn -0.1076 0.9090 -0.4026
vn -0.0988 0.0000 -0.9951
vn -0.1266 0.7890 -0.6013
vn -0.1055 0.0000 -0.9944
vn 0.1596 -0.9033 0.3983
vn 0.1467 0.0000 0.9892
vn -0.1110 -0.8827 0.4566
vn -0.0988 0.0000 0.9951
vn -0.1289 -0.7407 0.6593
vn -0.1055 0.0000 0.9944
vn 0.0000 -0.8928 0.4505
vn 0.0000 -0.6650 0.7469
vn -0.0965 -0.8166 -0.5691
vn 0.0000 0.9180 -0.3965
vn 0.4272 0.9042 0.0000
usemtl None
s off
f 1//1 3//1 4//1 2//1
f 3//2 1//2 5//2 6//2
f 68//3 21//3 15//3 52//3
f 74//4 32//4 12//4 41//4
f 127//1 97//1 14//1 44//1
f 71//5 34//5 9//5 37//5
f 117//6 94//6 13//6 33//6
f 115//2 92//2 9//2 34//2
f 121//7 101//7 18//7 50//7
f 59//8 27//8 17//8 49//8
f 112//2 22//2 18//2 101//2
f 106//6 28//6 16//6 99//6
f 91//9 8//9 30//9 102//9
f 102//10 30//10 29//10 104//10
f 104//11 29//11 28//11 106//11
f 93//12 10//12 24//12 108//12
f 108//13 24//13 23//13 110//13
f 110//14 23//14 22//14 112//14
f 37//15 9//15 25//15 53//15
f 53//16 25//16 26//16 56//16
f 56//17 26//17 27//17 59//17
f 40//18 7//18 19//18 62//18
f 62//19 19//19 20//19 65//19
f 65//20 20//20 21//20 68//20
f 97//21 115//21 34//21 14//21
f 91//6 117//6 33//6 8//6
f 44//22 14//22 34//22 71//22
f 38//23 10//23 32//23 74//23
f 7//24 40//24 76//24 31//24
f 40//25 39//25 75//25 76//25
f 39//25 38//25 74//25 75//25
f 13//26 46//26 73//26 33//26
f 46//27 45//27 72//27 73//27
f 45//28 44//28 71//28 72//28
f 23//29 67//29 70//29 22//29
f 67//30 66//30 69//30 70//30
f 66//30 65//30 68//30 69//30
f 24//31 64//31 67//31 23//31
f 64//32 63//32 66//32 67//32
f 63//32 62//32 65//32 66//32
f 10//33 38//33 64//33 24//33
f 38//34 39//34 63//34 64//34
f 39//34 40//34 62//34 63//34
f 29//35 58//35 61//35 28//35
f 58//36 57//36 60//36 61//36
f 57//36 56//36 59//36 60//36
f 30//37 55//37 58//37 29//37
f 55//38 54//38 57//38 58//38
f 54//38 53//38 56//38 57//38
f 8//39 35//39 55//39 30//39
f 35//40 36//40 54//40 55//40
f 36//40 37//40 53//40 54//40
f 28//41 61//41 47//41 16//41
f 61//28 60//28 48//28 128//28 47//28
f 60//28 59//28 49//28 48//28
f 98//7 119//7 130//7 52//7 15//7
f 118//6 132//6 144//6 145//6
f 133//6 118//6 145//6 146//6
f 33//42 73//42 35//42 8//42
f 73//28 72//28 36//28 35//28
f 72//28 71//28 37//28 36//28
f 94//1 123//1 46//1 13//1
f 123//1 125//1 45//1 46//1
f 125//1 127//1 44//1 45//1
f 31//43 76//43 43//43 11//43
f 76//25 75//25 42//25 43//25
f 75//25 74//25 41//25 42//25
f 22//44 70//44 50//44 18//44
f 70//25 69//25 51//25 50//25
f 69//25 68//25 52//25 129//25 51//25
f 51//2 131//2 48//2 80//2 81//2
f 75//2 39//2 78//2 89//2
f 48//2 60//2 84//2 80//2
f 54//2 36//2 77//2 82//2
f 57//2 54//2 82//2 83//2
f 60//2 57//2 83//2 84//2
f 51//6 69//6 87//6 81//6
f 63//6 39//6 78//6 85//6
f 42//45 75//45 89//45 79//45
f 66//6 63//6 85//6 86//6
f 69//6 66//6 86//6 87//6
f 36//2 72//2 88//2 77//2
f 42//1 41//1 126//1 124//1
f 124//1 126//1 127//1 125//1
f 43//1 42//1 124//1 122//1
f 122//1 124//1 125//1 123//1
f 11//1 43//1 122//1 95//1
f 95//1 122//1 123//1 94//1
f 16//7 47//7 132//7 118//7 99//7
f 99//7 118//7 133//7 119//7 98//7
f 7//6 31//6 116//6 90//6
f 90//6 116//6 117//6 91//6
f 12//21 32//21 114//21 96//21
f 96//21 114//21 115//21 97//21
f 26//14 111//14 113//14 27//14
f 111//14 110//14 112//14 113//14
f 25//13 109//13 111//13 26//13
f 109//13 108//13 110//13 111//13
f 9//12 92//12 109//12 25//12
f 92//12 93//12 108//12 109//12
f 20//11 105//11 107//11 21//11
f 105//11 104//11 106//11 107//11
f 19//10 103//10 105//10 20//10
f 103//10 102//10 104//10 105//10
f 7//9 90//9 103//9 19//9
f 90//9 91//9 102//9 103//9
f 21//6 107//6 98//6 15//6
f 107//6 106//6 99//6 98//6
f 27//2 113//2 100//2 17//2
f 113//2 112//2 101//2 100//2
f 49//7 17//7 100//7 120//7
f 120//7 100//7 101//7 121//7
f 32//2 10//2 93//2 114//2
f 114//2 93//2 92//2 115//2
f 31//6 11//6 95//6 116//6
f 116//6 95//6 94//6 117//6
f 41//1 12//1 96//1 126//1
f 126//1 96//1 97//1 127//1
f 149//7 134//7 135//7 142//7 138//7 139//7 140//7 141//7 147//7 146//7 145//7 144//7
f 135//7 136//7 148//7 143//7 137//7 138//7 142//7
f 121//2 50//2 137//2 143//2
f 119//6 133//6 146//6 147//6
f 47//28 128//28 134//28 149//28
f 128//28 48//28 135//28 134//28
f 49//2 120//2 148//2 136//2
f 51//25 129//25 139//25 138//25
f 48//28 49//28 136//28 135//28
f 120//2 121//2 143//2 148//2
f 130//6 119//6 147//6 141//6
f 50//25 51//25 138//25 137//25
f 132//6 47//6 149//6 144//6
f 129//25 52//25 140//25 139//25
f 52//6 130//6 141//6 140//6
o FlakCannonHousing_Cube.001
v -0.722909 0.824175 0.722909
v -0.407925 2.141628 0.722909
v -0.722909 0.824175 -0.722909
v -0.407925 2.141628 -0.722909
v 0.722909 0.824175 0.722909
v 0.722909 2.269992 0.722909
v 0.722909 0.824175 -0.722909
v 0.722909 2.269992 -0.722909
v -0.722909 1.921870 0.900713
v -0.722909 1.921870 -0.917629
v 0.889270 1.921870 -0.917629
v 0.889270 1.921870 0.900713
v -0.722909 0.824175 -0.433745
v -0.722909 0.824175 -0.144582
v -0.722909 0.824175 0.144582
v -0.722909 0.824175 0.433745
v -0.407925 2.141628 0.433745
v -0.407925 1.947848 0.144582
v -0.407925 1.947848 -0.144582
v -0.407925 2.141628 -0.433745
v 0.722909 0.824175 0.433745
v 0.722909 0.824175 0.144582
v 0.722909 0.824175 -0.144582
v 0.722909 0.824175 -0.433745
v 0.722909 2.269992 -0.433745
v 0.722909 2.268102 -0.144582
v 0.722909 2.268102 0.144582
v 0.722909 2.269992 0.433745
v 0.889270 1.921870 -0.433745
v 0.889270 1.921870 -0.144582
v 0.889270 1.921870 0.144582
v 0.889270 1.921870 0.433745
v -0.722909 1.921870 0.433745
v -0.722909 1.728090 0.144582
v -0.722909 1.728090 -0.144582
v -0.722909 1.921870 -0.433745
v 0.528151 0.824175 -0.722909
v 0.046212 0.824175 -0.722909
v 0.193636 2.209913 -0.722909
v 0.570580 2.252701 -0.722909
v 0.046212 0.824175 0.722909
v 0.528151 0.824175 0.722909
v 0.570580 2.252701 0.722909
v 0.193636 2.209913 0.722909
v 0.528151 1.921870 0.900713
v 0.046212 1.921870 0.900713
v 0.046212 1.921870 -0.917629
v 0.528151 1.921870 -0.917629
v 0.193636 2.209913 -0.433745
v 0.570580 2.252701 -0.433745
v 0.193636 2.016133 -0.144582
v 0.570580 2.250811 -0.144582
v 0.193636 2.016133 0.144582
v 0.570580 2.250811 0.144582
v 0.193636 2.209913 0.433745
v 0.570580 2.252701 0.433745
v 0.528151 0.824175 -0.433745
v 0.046212 0.824175 -0.433745
v 0.528151 0.824175 -0.144582
v 0.046212 0.824175 -0.144582
v 0.528151 0.824175 0.144582
v 0.046212 0.824175 0.144582
v 0.528151 0.824175 0.433745
v 0.046212 0.824175 0.433745
v -0.617712 1.645338 -0.762998
v -0.617712 1.325681 -0.706294
v 0.757415 1.645338 -0.762998
v 0.708969 1.325681 -0.706294
v 0.757415 1.645338 0.750961
v 0.708969 1.325681 0.699183
v -0.617712 1.325681 0.699183
v -0.617712 1.645338 0.750961
v -0.617712 1.645338 0.378606
v -0.617712 1.325681 0.378606
v -0.617712 1.514844 0.125987
v -0.617712 1.251618 0.125987
v -0.617712 1.514844 -0.126633
v -0.617712 1.251618 -0.126633
v -0.617712 1.645338 -0.379252
v -0.617712 1.325681 -0.379252
v 0.757415 1.645338 -0.379252
v 0.708969 1.325681 -0.379252
v 0.757415 1.645338 -0.126633
v 0.708969 1.325681 -0.126633
v 0.757415 1.645338 0.125987
v 0.708969 1.325681 0.125987
v 0.757415 1.645338 0.378606
v 0.708969 1.325681 0.378606
v 0.054208 1.645338 -0.762998
v 0.054208 1.325681 -0.706294
v 0.475240 1.645338 -0.762998
v 0.475240 1.325681 -0.706294
v 0.475240 1.645338 0.750961
v 0.475240 1.325681 0.699183
v 0.054208 1.645338 0.750961
v 0.054208 1.325681 0.699183
vn -0.5722 0.8201 0.0000
vn -0.0167 0.4952 -0.8686
vn 0.9023 0.4312 0.0000
vn -0.0295 0.5912 0.8060
vn 0.0000 -1.0000 0.0000
vn -0.1128 0.9936 0.0000
vn 0.0000 -0.4762 0.8793
vn 0.9026 -0.4304 0.0000
vn 0.0000 -0.4881 -0.8728
vn -0.9347 -0.3556 0.0000
vn -0.8761 -0.4136 0.2476
vn -0.8968 -0.4424 0.0000
vn -0.8765 -0.4131 -0.2472
vn -0.0939 0.8270 0.5542
vn -0.0939 0.8270 -0.5542
vn 0.9018 0.4321 0.0014
vn 0.9013 0.4331 0.0000
vn 0.9018 0.4321 -0.0014
vn -0.5014 0.7187 -0.4816
vn -0.5014 0.7187 0.4816
vn -0.1128 0.9936 -0.0065
vn -0.3292 0.8945 -0.3026
vn -0.5285 0.8489 0.0000
vn -0.1128 0.9936 0.0065
vn -0.3292 0.8945 0.3026
vn -0.0155 0.4617 0.8869
vn -0.0251 0.5038 0.8634
vn -0.0312 0.6260 -0.7792
vn -0.0268 0.5383 -0.8423
vn 0.0000 0.0473 0.9989
vn 0.0000 -0.1599 0.9871
vn 0.0000 0.0331 -0.9995
vn 0.0000 -0.1747 -0.9846
vn 0.9996 0.0278 0.0000
vn 0.9887 -0.1498 0.0000
vn -0.9754 0.2186 0.0299
vn -1.0000 0.0000 0.0000
vn -0.9710 0.2390 0.0000
vn -0.9754 0.2185 -0.0299
vn -0.9787 0.2053 0.0000
usemtl None
s off
f 185//46 169//46 153//46 159//46
f 197//47 189//47 157//47 160//47
f 181//48 177//48 155//48 161//48
f 195//49 193//49 151//49 158//49
f 212//50 170//50 154//50 191//50
f 204//51 166//51 151//51 193//51
f 244//52 195//52 158//52 221//52
f 236//53 181//53 161//53 218//53
f 240//54 197//54 160//54 216//54
f 228//55 185//55 159//55 214//55
f 221//55 158//55 182//55 222//55
f 222//56 182//56 183//56 224//56
f 224//57 183//57 184//57 226//57
f 226//58 184//58 185//58 228//58
f 216//53 160//53 178//53 230//53
f 230//53 178//53 179//53 232//53
f 232//53 179//53 180//53 234//53
f 234//53 180//53 181//53 236//53
f 188//51 153//51 169//51 198//51
f 198//59 169//59 168//59 200//59
f 200//51 168//51 167//51 202//51
f 202//60 167//60 166//60 204//60
f 186//50 156//50 173//50 206//50
f 206//50 173//50 172//50 208//50
f 208//50 172//50 171//50 210//50
f 210//50 171//50 170//50 212//50
f 160//48 157//48 174//48 178//48
f 178//61 174//61 175//61 179//61
f 179//62 175//62 176//62 180//62
f 180//63 176//63 177//63 181//63
f 158//46 151//46 166//46 182//46
f 182//64 166//64 167//64 183//64
f 183//46 167//46 168//46 184//46
f 184//65 168//65 169//65 185//65
f 164//50 211//50 213//50 165//50
f 211//50 210//50 212//50 213//50
f 163//50 209//50 211//50 164//50
f 209//50 208//50 210//50 211//50
f 162//50 207//50 209//50 163//50
f 207//50 206//50 208//50 209//50
f 152//50 187//50 207//50 162//50
f 187//50 186//50 206//50 207//50
f 176//66 203//66 205//66 177//66
f 203//67 202//67 204//67 205//67
f 175//51 201//51 203//51 176//51
f 201//68 200//68 202//68 203//68
f 174//69 199//69 201//69 175//69
f 199//70 198//70 200//70 201//70
f 157//51 189//51 199//51 174//51
f 189//51 188//51 198//51 199//51
f 214//54 159//54 196//54 238//54
f 238//54 196//54 197//54 240//54
f 218//52 161//52 194//52 242//52
f 242//52 194//52 195//52 244//52
f 177//51 205//51 192//51 155//51
f 205//51 204//51 193//51 192//51
f 165//50 213//50 190//50 150//50
f 213//50 212//50 191//50 190//50
f 161//71 155//71 192//71 194//71
f 194//72 192//72 193//72 195//72
f 159//73 153//73 188//73 196//73
f 196//74 188//74 189//74 197//74
f 191//75 243//75 245//75 190//75
f 243//76 242//76 244//76 245//76
f 154//75 219//75 243//75 191//75
f 219//76 218//76 242//76 243//76
f 187//77 239//77 241//77 186//77
f 239//78 238//78 240//78 241//78
f 152//77 215//77 239//77 187//77
f 215//78 214//78 238//78 239//78
f 171//79 235//79 237//79 170//79
f 235//80 234//80 236//80 237//80
f 172//79 233//79 235//79 171//79
f 233//80 232//80 234//80 235//80
f 173//79 231//79 233//79 172//79
f 231//80 230//80 232//80 233//80
f 156//79 217//79 231//79 173//79
f 217//80 216//80 230//80 231//80
f 163//81 227//81 229//81 162//81
f 227//82 226//82 228//82 229//82
f 164//83 225//83 227//83 163//83
f 225//82 224//82 226//82 227//82
f 165//84 223//84 225//84 164//84
f 223//82 222//82 224//82 225//82
f 150//85 220//85 223//85 165//85
f 220//82 221//82 222//82 223//82
f 162//85 229//85 215//85 152//85
f 229//82 228//82 214//82 215//82
f 186//77 241//77 217//77 156//77
f 241//78 240//78 216//78 217//78
f 170//79 237//79 219//79 154//79
f 237//80 236//80 218//80 219//80
f 190//75 245//75 220//75 150//75
f 245//76 244//76 221//76 220//76
o FlakCannonPlinth_Cube
v 1.686747 -1.000000 -1.686747
v 1.686747 -1.000000 1.686747
v -1.686747 -1.000000 1.686747
v -1.686746 -1.000000 -1.686747
v 1.000000 1.000000 -0.999999
v 0.999999 1.000000 1.000001
v -1.000000 1.000000 1.000000
v -1.000000 1.000000 -1.000000
v 1.549288 -0.599680 -1.549287
v 0.920944 -0.130131 -0.920943
v 0.831357 0.130771 -0.831357
v 1.137240 0.600320 -1.137239
v 1.549288 -0.599680 1.549288
v 0.920943 -0.130131 0.920944
v 0.831357 0.130771 0.831357
v 1.137239 0.600320 1.137240
v -1.549288 -0.599680 1.549287
v -0.920944 -0.130131 0.920944
v -0.831357 0.130771 0.831357
v -1.137240 0.600320 1.137239
v -1.549287 -0.599680 -1.549288
v -0.920943 -0.130131 -0.920944
v -0.831357 0.130771 -0.831357
v -1.137239 0.600320 -1.137240
v 1.686747 -2.438801 -1.686747
v 1.686747 -2.438801 1.686747
v -1.686746 -2.438801 -1.686747
v -1.686747 -2.438801 1.686747
vn 1.0000 0.0000 0.0000
vn 0.0000 1.0000 0.0000
vn 0.9458 0.3248 0.0000
vn -0.0000 0.3248 0.9458
vn -0.9458 0.3248 -0.0000
vn 0.0000 0.3248 -0.9458
vn 0.0000 -0.5458 -0.8379
vn 0.0000 0.8010 -0.5986
vn -0.5986 0.8010 -0.0000
vn -0.8379 -0.5458 -0.0000
vn -0.0000 0.8010 0.5986
vn -0.0000 -0.5458 0.8379
vn 0.5986 0.8010 0.0000
vn 0.8379 -0.5458 0.0000
vn 0.0000 -1.0000 -0.0000
vn -1.0000 0.0000 -0.0000
vn -0.0000 0.0000 1.0000
vn 0.0000 0.0000 -1.0000
usemtl Material
s off
f 246//86 247//86 271//86 270//86
f 250//87 253//87 252//87 251//87
f 257//88 250//88 251//88 261//88
f 261//89 251//89 252//89 265//89
f 265//90 252//90 253//90 269//90
f 254//91 246//91 249//91 266//91
f 250//91 257//91 269//91 253//91
f 257//92 256//92 268//92 269//92
f 256//91 255//91 267//91 268//91
f 255//93 254//93 266//93 267//93
f 248//90 262//90 266//90 249//90
f 262//94 263//94 267//94 266//94
f 263//90 264//90 268//90 267//90
f 264//95 265//95 269//95 268//95
f 247//89 258//89 262//89 248//89
f 258//96 259//96 263//96 262//96
f 259//89 260//89 264//89 263//89
f 260//97 261//97 265//97 264//97
f 246//88 254//88 258//88 247//88
f 254//98 255//98 259//98 258//98
f 255//88 256//88 260//88 259//88
f 256//99 257//99 261//99 260//99
f 270//100 271//100 273//100 272//100
f 248//101 249//101 272//101 273//101
f 247//102 248//102 273//102 271//102
f 249//103 246//103 270//103 272//103
