# Blender v2.79 (sub 0) OBJ File: 'CapitalShip.blend'
# www.blender.org
mtllib ShipPlacementMeshobj.mtl
o Cube
v 0.714286 -0.225802 -6.357656
v 0.428572 -0.225802 -6.357656
v 0.142857 -0.537444 -6.357656
v -0.142857 -0.537444 -6.357656
v -0.428571 -0.225802 -6.357656
v -0.714286 -0.225802 -6.357656
v 1.428571 1.247821 7.996641
v 0.857142 1.247821 7.996641
v 0.285714 1.000000 7.996641
v -0.285715 1.000000 7.996640
v -0.857143 1.247821 7.996640
v -1.428572 1.247821 7.996640
v -1.185258 0.442100 2.546962
v -0.711155 0.442100 2.546962
v -0.237052 0.130459 2.546962
v 0.237051 0.130459 2.546962
v 0.711154 0.442100 2.546962
v 1.185257 0.442100 2.546962
vn 0.0000 0.9972 -0.0748
vn 0.0000 0.9892 -0.1463
vn 0.0000 0.9875 -0.1576
usemtl Material
s off
f 1//1 2//1 17//1 18//1
f 3//1 4//1 15//1 16//1
f 5//1 6//1 13//1 14//1
f 18//2 17//2 8//2 7//2
f 16//3 15//3 10//3 9//3
f 14//2 13//2 12//2 11//2
